HIERARCHY
ROOT Pelvis
{
	OFFSET 0.000000 0.000000 0.000000
	CHANNELS 6 Xposition Yposition Zposition Xrotation Yrotation Zrotation
	JOINT LeftUpLeg_virtual
	{
		OFFSET 0.000000 0.000000 0.000000
		CHANNELS 3 Xrotation Yrotation Zrotation
		JOINT LeftUpLeg
		{
			OFFSET 18.735201 -5.666702 -4.541200
			CHANNELS 3 Xrotation Yrotation Zrotation
			JOINT LeftLeg
			{
				OFFSET -0.021200 -31.938179 0.493100
				CHANNELS 3 Xrotation Yrotation Zrotation
				JOINT LeftFoot
				{
					OFFSET 0.021200 -31.938179 -4.336299
					CHANNELS 3 Xrotation Yrotation Zrotation
					JOINT LeftToeBase
					{
						OFFSET 0.943001 -26.722000 15.023500
						CHANNELS 3 Xrotation Yrotation Zrotation
						End Site
						{
							OFFSET 0 0 0
						}
					}
				}
			}
		}
	}
	JOINT RightUpLeg_virtual
	{
		OFFSET 0.000000 0.000000 0.000000
		CHANNELS 3 Xrotation Yrotation Zrotation
		JOINT RightUpLeg
		{
			OFFSET -18.735201 -5.666702 -4.541200
			CHANNELS 3 Xrotation Yrotation Zrotation
			JOINT RightLeg
			{
				OFFSET 0.018946 -31.938133 0.493100
				CHANNELS 3 Xrotation Yrotation Zrotation
				JOINT RightFoot
				{
					OFFSET -0.018946 -31.938126 -4.336299
					CHANNELS 3 Xrotation Yrotation Zrotation
					JOINT RightToeBase
					{
						OFFSET -0.943001 -26.722004 15.023500
						CHANNELS 3 Xrotation Yrotation Zrotation
						End Site
						{
							OFFSET 0 0 0
						}
					}
				}
			}
		}
	}
	JOINT Hips_virtual
	{
		OFFSET 0.000000 0.000000 0.000000
		CHANNELS 3 Xrotation Yrotation Zrotation
		JOINT Hips
		{
			OFFSET -0.000000 -0.000000 -0.000000
			CHANNELS 3 Xrotation Yrotation Zrotation
			JOINT Spine
			{
				OFFSET 0.000000 10.199997 -0.299500
				CHANNELS 3 Xrotation Yrotation Zrotation
				JOINT Spine1
				{
					OFFSET 0.000000 11.900002 -1.516600
					CHANNELS 3 Xrotation Yrotation Zrotation
					JOINT Spine2
					{
						OFFSET 0.000000 13.600006 -2.842500
						CHANNELS 3 Xrotation Yrotation Zrotation
						JOINT Neck_virtual
						{
							OFFSET 0.000000 0.000000 0.000000
							CHANNELS 3 Xrotation Yrotation Zrotation
							JOINT Neck
							{
								OFFSET 0.000000 9.624100 -2.890100
								CHANNELS 3 Xrotation Yrotation Zrotation
								JOINT Head
								{
									OFFSET 0.000000 14.068802 -1.351900
									CHANNELS 3 Xrotation Yrotation Zrotation
									End Site
									{
										OFFSET 0 0 0
									}
								}
							}
						}
						JOINT LeftShoulder_virtual
						{
							OFFSET 0.000000 0.000000 0.000000
							CHANNELS 3 Xrotation Yrotation Zrotation
							JOINT LeftShoulder
							{
								OFFSET 15.263000 10.923401 -0.547700
								CHANNELS 3 Xrotation Yrotation Zrotation
								JOINT LeftArm
								{
									OFFSET 25.438599 -2.830597 -13.032500
									CHANNELS 3 Xrotation Yrotation Zrotation
									JOINT LeftForeArm
									{
										OFFSET 29.960503 0.000000 0.000000
										CHANNELS 3 Xrotation Yrotation Zrotation
										JOINT LeftHand
										{
											OFFSET 27.849251 0.000000 0.000000
											CHANNELS 3 Xrotation Yrotation Zrotation
											End Site
											{
												OFFSET 0 0 0
											}
										}
									}
								}
							}
						}
						JOINT RightShoulder_virtual
						{
							OFFSET 0.000000 0.000000 0.000000
							CHANNELS 3 Xrotation Yrotation Zrotation
							JOINT RightShoulder
							{
								OFFSET -15.263000 10.923401 -0.547700
								CHANNELS 3 Xrotation Yrotation Zrotation
								JOINT RightArm
								{
									OFFSET -25.438599 -2.830597 -13.032500
									CHANNELS 3 Xrotation Yrotation Zrotation
									JOINT RightForeArm
									{
										OFFSET -29.960503 0.000000 0.000000
										CHANNELS 3 Xrotation Yrotation Zrotation
										JOINT RightHand
										{
											OFFSET -27.849251 0.000000 0.000000
											CHANNELS 3 Xrotation Yrotation Zrotation
											End Site
											{
												OFFSET 0 0 0
											}
										}
									}
								}
							}
						}
					}
				}
			}
		}
	}
}
MOTION
Frames: 8
Frame Time: 0.03333333
-11.934832 84.866470 11.157845 0.000000 0.000000 0.000000 -12.570170 -77.628119 -9.361316 -38.720981 22.925583 37.837988 42.724988 -15.639332 -7.796507 -15.673954 -6.624142 -30.181090 0.000000 0.000000 0.000000 -13.720177 -76.014473 -10.958898 -29.654164 14.533630 -38.125269 64.765875 1.690192 -2.568390 -37.437882 5.668713 10.175714 0.000000 0.000000 0.000000 -10.896814 -72.793001 -7.067739 -0.895780 0.050993 -0.138647 19.327960 6.945981 -4.490293 1.965426 -1.695011 -4.939549 0.000000 0.000000 0.000000 -2.198665 -0.744249 -5.855004 -5.833919 0.662817 1.948482 0.000000 0.000000 0.000000 2.043321 -0.681869 -5.542554 -13.070225 -18.272686 5.221164 -4.183387 35.058821 -45.873924 -21.090161 -50.239269 -5.545116 0.000000 0.000000 0.000000 -4.089925 -0.503563 -4.373677 -0.870005 -0.091349 8.353464 -13.983466 -50.591467 29.017488 -168.721437 39.779206 173.574723 0.000000 0.000000 0.000000 
-13.208983 84.863602 11.432522 0.000000 0.000000 0.000000 -11.431554 -76.690621 -8.117311 -40.069247 22.624923 38.644985 46.006594 -15.350888 -7.234637 -12.966160 -7.864732 -29.783023 0.000000 0.000000 0.000000 -11.550599 -75.241719 -8.795394 -30.776402 14.334854 -37.265235 67.197778 3.118106 -2.470926 -33.811923 6.447338 12.610180 0.000000 0.000000 0.000000 -10.779396 -72.792604 -7.035631 -0.902323 0.038821 -0.204523 18.420059 6.487762 -5.064108 1.404181 -1.903283 -5.763686 0.000000 0.000000 0.000000 -2.935123 -1.024829 -6.358593 -5.610590 0.884288 1.898062 0.000000 0.000000 0.000000 1.555317 -0.979194 -6.324572 -12.879401 -18.657681 5.548066 -4.488637 33.428995 -45.184153 -22.208213 -53.103167 -6.717848 0.000000 0.000000 0.000000 -4.535225 -0.828825 -5.083307 -0.822621 -0.605420 8.436953 -14.074182 -55.441865 27.646943 -169.598406 37.015288 174.532794 0.000000 0.000000 0.000000 
-15.740644 85.091621 11.479118 0.000000 0.000000 0.000000 -9.738543 -74.998769 -6.329369 -40.865578 22.669704 39.477711 48.007863 -14.224450 -6.592737 -11.079313 -8.058475 -27.254847 0.000000 0.000000 0.000000 -8.783322 -73.555407 -5.880550 -34.493579 15.520393 -35.318290 71.467199 6.018924 -2.322302 -27.776113 8.903780 16.213180 0.000000 0.000000 0.000000 -9.985295 -72.641077 -6.229832 -0.902649 0.011541 -0.213769 17.399253 5.671226 -5.452375 0.052022 -2.302625 -7.666602 0.000000 0.000000 0.000000 -4.496290 -1.587991 -7.857526 -5.333262 0.963726 1.907704 0.000000 0.000000 0.000000 0.244390 -1.587725 -8.121986 -12.681735 -17.531169 7.181608 -4.999105 31.598709 -43.634175 -23.997668 -57.912559 -8.850614 0.000000 0.000000 0.000000 -5.540029 -1.413392 -6.897005 -0.767252 -1.166951 8.131599 -14.715153 -62.017694 28.050322 -171.078958 33.180854 175.839559 0.000000 0.000000 0.000000 
-19.266441 85.244804 11.266994 0.000000 0.000000 0.000000 -7.603125 -72.734678 -4.079708 -39.779039 22.730658 39.639163 46.128922 -12.687836 -5.775380 -9.751986 -7.603492 -24.204205 0.000000 0.000000 0.000000 -6.410908 -71.418644 -3.127998 -39.922848 17.377936 -32.892186 76.024759 9.416369 -2.492630 -19.471455 12.863300 19.930772 0.000000 0.000000 0.000000 -8.150945 -72.162957 -4.344264 -0.877322 0.000765 -0.168895 16.803575 4.654604 -5.395217 -1.787945 -2.780576 -10.007227 0.000000 0.000000 0.000000 -6.438089 -2.234050 -9.914873 -5.001017 0.858197 1.941839 0.000000 0.000000 0.000000 -1.754580 -2.301066 -10.445357 -12.625343 -15.003001 9.677299 -6.131060 29.729037 -41.287616 -26.448065 -63.655587 -11.887616 0.000000 0.000000 0.000000 -7.091511 -2.042078 -9.218343 -0.809894 -1.457158 7.415914 -15.702511 -68.597133 30.627866 -172.649246 30.095784 176.837627 0.000000 0.000000 0.000000 
-23.369789 84.986351 10.888905 0.000000 0.000000 0.000000 -5.591445 -70.394730 -1.890069 -36.575718 22.653072 38.644903 41.273194 -11.390833 -4.180934 -6.949598 -7.076018 -21.759012 0.000000 0.000000 0.000000 -4.387267 -69.177187 -0.792641 -45.535621 18.983775 -31.225695 79.316173 11.812882 -2.669740 -10.912666 16.595857 21.156642 0.000000 0.000000 0.000000 -5.160432 -71.219270 -1.411020 -0.865825 -0.003341 -0.130195 16.870767 3.559193 -4.761547 -3.771341 -3.125141 -12.125800 0.000000 0.000000 0.000000 -8.290923 -2.705469 -11.922316 -4.580115 0.538851 1.947568 0.000000 0.000000 0.000000 -4.140392 -2.741485 -12.719153 -12.810495 -11.161473 12.180394 -7.580354 27.715752 -38.723027 -29.113937 -69.279975 -15.388811 0.000000 0.000000 0.000000 -8.953153 -2.443799 -11.418360 -1.020191 -1.031731 5.797757 -19.495358 -73.801034 31.837243 -174.091249 28.335381 177.433930 0.000000 0.000000 0.000000 
-27.840397 84.094742 10.224518 0.000000 0.000000 0.000000 -3.876619 -68.283935 -0.005812 -32.216397 21.801366 37.084164 35.697454 -10.718704 -1.684888 -3.368139 -6.862606 -20.683648 0.000000 0.000000 0.000000 -3.060033 -67.085708 0.769971 -49.025325 20.607970 -31.352177 79.017386 12.355121 -2.683014 -3.593172 17.981846 18.103266 0.000000 0.000000 0.000000 -2.114883 -69.592777 1.550789 -0.874217 -0.004501 -0.114348 17.549830 2.578758 -3.620518 -5.554151 -3.142200 -13.335853 0.000000 0.000000 0.000000 -9.524973 -2.779912 -13.209299 -4.027051 0.035225 1.873377 0.000000 0.000000 0.000000 -6.504045 -2.625295 -14.259244 -13.184936 -6.306821 14.035081 -9.154472 25.619409 -36.592616 -31.231928 -74.102321 -18.558630 0.000000 0.000000 0.000000 -10.821736 -2.409056 -12.988086 -1.329860 0.341977 2.583446 -32.946203 -76.974811 22.498606 -175.246685 27.933906 177.793048 0.000000 0.000000 0.000000 
-32.267899 82.588425 9.695824 0.000000 0.000000 0.000000 -2.411826 -66.606222 1.592888 -27.346162 19.508613 35.684815 31.455880 -11.837601 1.618539 -2.242750 -7.703897 -22.173707 0.000000 0.000000 0.000000 -1.762196 -65.547242 2.236334 -48.593173 22.918416 -32.637721 73.792838 11.239932 -3.119301 -0.700469 15.976256 12.844928 0.000000 0.000000 0.000000 0.140973 -67.714113 3.852144 -0.847672 -0.010266 -0.070967 18.318403 1.969839 -2.289132 -6.794822 -2.737845 -13.488240 0.000000 0.000000 0.000000 -10.134326 -2.304177 -13.423351 -3.383942 -0.588172 1.622483 0.000000 0.000000 0.000000 -8.303893 -1.939893 -14.631097 -13.537974 -1.014015 15.320850 -10.667987 23.952085 -35.759903 -31.658040 -77.757947 -20.234932 0.000000 0.000000 0.000000 -12.151212 -1.891807 -13.673596 -1.347956 2.559922 -2.553846 -55.509504 -76.014999 1.958891 -176.079203 28.665221 177.925526 0.000000 0.000000 0.000000 
-36.683548 80.707962 9.062107 0.000000 0.000000 0.000000 -1.012473 -65.704931 3.046218 -22.888828 16.741016 35.379734 30.005233 -15.011359 5.002629 -4.499499 -9.622879 -25.875034 0.000000 0.000000 0.000000 -0.399645 -64.663170 3.666657 -44.174645 25.072204 -35.083127 63.930543 9.167459 -3.707059 -5.560641 11.812994 8.627179 0.000000 0.000000 0.000000 1.253694 -66.032794 5.175503 -0.802154 0.020647 -0.032891 18.945997 1.925687 -1.293353 -7.267710 -1.830861 -12.716374 0.000000 0.000000 0.000000 -10.076519 -1.299373 -12.525061 -2.705464 -1.227202 1.150471 0.000000 0.000000 0.000000 -9.111799 -0.829119 -13.707233 -13.727682 4.076204 16.170444 -11.939327 23.248513 -36.528125 -30.025693 -80.338932 -19.978580 0.000000 0.000000 0.000000 -12.472631 -0.967082 -13.333152 -0.714288 5.432437 -9.109591 -67.058989 -71.240205 -8.633059 -176.610442 30.574659 177.959472 0.000000 0.000000 0.000000 
